<?xml version="1.0" encoding="utf-8"?>
<!-- Generator: Adobe Illustrator 26.0.2, SVG Export Plug-In . SVG Version: 6.00 Build 0)  -->
<svg version="1.1" id="Calque_1" xmlns="http://www.w3.org/2000/svg" xmlns:xlink="http://www.w3.org/1999/xlink" x="0px" y="0px"
	 viewBox="0 0 374 374" style="enable-background:new 0 0 374 374;" xml:space="preserve">
<style type="text/css">
	.st0{fill:#E3182C;}
	.st1{fill:#FFFFFF;}
</style>
<g>
	<path id="path1090" class="st0" d="M373.8,373.8H0.1V0.1h373.7L373.8,373.8L373.8,373.8z"/>
	<g id="g1610" transform="matrix(2.568208,0,0,2.568208,-697.35622,-864.40566)">
		<path id="path1094" class="st1" d="M339.3,371l-39.7,13.1l-0.1,67.7l42.7-14.2c10.4-3.3,9.8-13.3,5.6-17.8
			c0,0-14.7-16.5-16.5-18.4c-2.3-2.5-2.6-7.3,3.1-9.1l32.4-10.7v46.6c0.1,8.7-1.7,8.8-6.6,10.6l-27.3,9.1v6.4l32.7-10.8
			c6-2,7.6-5.9,7.5-13.6v-56.3L332.7,387c-10.1,3.4-11,12.7-6,18.4l16.7,18.7c2.6,2.9,0.8,6.7-1.9,7.5l-36.1,11.8v-24.8l12.1-4v-6.4
			l-12.1,4v-23.7l33.8-11.1L339.3,371L339.3,371z"/>
		<path id="path1102" class="st1" d="M373.2,359.8v6.4l-6.1,2v-6.4L373.2,359.8z"/>
	</g>
	<g id="g1606" transform="matrix(2.568208,0,0,2.568208,-697.35622,-864.40566)">
		<path id="path1106" class="st1" d="M393,445.6v-3.2c0-0.3,0.1-0.5,0.5-0.5h1.3c0.3,0,0.5,0.1,0.5,0.5v5.5c0,0.3-0.2,0.4-0.5,0.4
			h-10.1c-0.3,0-0.5-0.1-0.5-0.5V446c0-0.3,0.1-0.5,0.5-0.5h8.3V445.6z"/>
		<path id="path1110" class="st1" d="M394.7,427.7c0.3,0,0.5,0.1,0.5,0.5v1.8c0,0.3-0.1,0.5-0.5,0.5h-10.1c-0.3,0-0.5-0.1-0.5-0.5
			v-1.8c0-0.3,0.1-0.5,0.5-0.5H394.7z"/>
		<path id="path1114" class="st1" d="M393,412.9v-3.2c0-0.3,0.1-0.5,0.5-0.5h1.3c0.3,0,0.5,0.1,0.5,0.5v5.5c0,0.3-0.2,0.4-0.5,0.4
			h-10.1c-0.3,0-0.5-0.1-0.5-0.5v-1.8c0-0.3,0.1-0.5,0.5-0.5h8.3V412.9z"/>
		<path id="path1118" class="st1" d="M393,395v-3.2c0-0.3,0.1-0.5,0.5-0.5h1.3c0.3,0,0.5,0.1,0.5,0.5v5.5c0,0.3-0.2,0.4-0.5,0.4
			h-10.1c-0.3,0-0.5-0.1-0.5-0.5v-1.8c0-0.3,0.1-0.5,0.5-0.5h8.3V395z"/>
		<path id="path1122" class="st1" d="M395.2,379.3c0,0.3-0.1,0.5-0.5,0.5h-10.1c-0.3,0-0.5-0.1-0.5-0.5v-5.6c0-0.3,0.1-0.5,0.5-0.5
			h1.3c0.3,0,0.5,0.1,0.5,0.5v3.3h2.1v-3c0-0.3,0.1-0.5,0.5-0.5h1.2c0.3,0,0.5,0.1,0.5,0.5v3.1h2.4v-3.5c0-0.3,0.1-0.5,0.5-0.5h1.3
			c0.3,0,0.5,0.1,0.5,0.5L395.2,379.3z"/>
	</g>
</g>
</svg>
