<?xml version="1.0" encoding="utf-8"?>
<!-- Generator: Adobe Illustrator 26.0.2, SVG Export Plug-In . SVG Version: 6.00 Build 0)  -->
<svg version="1.1" id="Calque_1" xmlns="http://www.w3.org/2000/svg" xmlns:xlink="http://www.w3.org/1999/xlink" x="0px" y="0px"
	 viewBox="0 0 1000 1000" style="enable-background:new 0 0 1000 1000;" xml:space="preserve">
<style type="text/css">
	.st0{fill:#FFFFFF;}
	.st1{fill:#0754E8;}
</style>
<g>
	<path class="st0" d="M-7.5-7.5c338.33,0,676.67,0,1015,0c0,338.33,0,676.67,0,1015c-338.33,0-676.67,0-1015,0
		C-7.5,669.17-7.5,330.83-7.5-7.5z M-0.2,526.12c0,156.4,0,312.8,0,469.2c0,0.76,0.06,1.53-0.01,2.28c-0.13,1.49,0.39,2.25,2,2.09
		c0.75-0.07,1.52-0.01,2.28-0.01c311.87,0,623.74,0,935.62-0.04c3.61,0,7.25-0.36,10.82-0.92c26.12-4.05,48.61-26.86,48.62-57.08
		c0.09-312.55,0.06-625.1,0.06-937.64c0-0.76,0.17-1.58-0.06-2.26c-0.19-0.56-0.79-1.2-1.34-1.37c-0.78-0.23-1.67-0.07-2.52-0.07
		c-312.89,0-625.77,0-938.66,0.04c-3.27,0-6.58,0.34-9.8,0.9c-27.46,4.72-47,28.01-47,55.93C-0.2,213.49-0.2,369.81-0.2,526.12z"/>
	<path class="st1" d="M-0.2,526.12c0-156.32,0-312.63,0-468.95c0-27.92,19.53-51.21,47-55.93c3.23-0.55,6.53-0.9,9.8-0.9
		c312.89-0.04,625.77-0.04,938.66-0.04c0.85,0,1.74-0.17,2.52,0.07c0.55,0.17,1.15,0.81,1.34,1.37c0.23,0.68,0.06,1.5,0.06,2.26
		c0,312.55,0.04,625.1-0.06,937.64c-0.01,30.23-22.5,53.03-48.62,57.08c-3.57,0.55-7.21,0.91-10.82,0.92
		c-311.87,0.04-623.74,0.04-935.62,0.04c-0.76,0-1.53-0.06-2.28,0.01c-1.6,0.16-2.13-0.6-2-2.09c0.07-0.75,0.01-1.52,0.01-2.28
		C-0.2,838.93-0.2,682.52-0.2,526.12z M330.98,292.04c-0.05-0.94-0.01-1.53-0.13-2.09c-3.91-18.2-7.83-36.39-11.75-54.59
		c-5.69-26.43-11.36-52.86-17.04-79.29c-4.57-21.24-9.14-42.49-13.7-63.73c-0.33-1.53-0.83-2.55-2.76-2.55
		c-23.5,0.05-47,0.04-70.5,0.02c-1.56,0-2.41,0.41-2.75,2.17c-1.1,5.62-2.44,11.19-3.66,16.78c-6.52,29.87-13.04,59.74-19.55,89.61
		c-3.6,16.54-7.19,33.08-10.79,49.63c-0.31,1.44-0.58,2.58-2.65,2.56c-12.93-0.11-25.87-0.08-38.8-0.03
		c-1.73,0.01-2.54-0.5-2.39-2.29c0.07-0.84,0.01-1.69,0.01-2.53c0-50.72,0-101.44,0-152.15c0-3.73-0.02-3.74-3.59-3.74
		c-14.88-0.01-29.75-0.01-44.63,0c-3.34,0-3.42,0.06-3.42,3.38c-0.01,65.26,0.01,130.51-0.05,195.77c0,2.49,0.69,3.35,3.29,3.35
		c43.11-0.07,86.22-0.08,129.33,0.01c2.74,0.01,3.55-1.05,4.02-3.52c1.7-8.93,3.67-17.82,5.44-26.74c0.28-1.43,0.81-2.04,2.29-2.04
		c14.29,0.03,28.57,0.03,42.86,0c1.43,0,2.05,0.51,2.34,1.98c1.77,8.92,3.75,17.8,5.44,26.74c0.5,2.62,1.43,3.6,4.23,3.58
		c15.21-0.14,30.43-0.06,45.65-0.07C328.7,292.26,329.7,292.13,330.98,292.04z M250.38,927.59c0-1.31,0-2.23,0-3.14
		c0-65.27,0-130.53,0-195.8c0-3.26-0.01-3.28-3.4-3.28c-13.02-0.01-26.04,0-39.06,0c-3.57,0-3.57,0.01-3.57,3.65
		c0,32.8,0,65.6,0,98.4c0,0.83,0,1.66,0,2.48c-0.67-0.54-0.93-1.06-1.18-1.59c-15.86-33.4-31.74-66.79-47.53-100.22
		c-0.99-2.09-2.15-2.79-4.41-2.78c-16.74,0.09-33.48,0.05-50.22,0.05c-3.48,0-3.53,0.04-3.53,3.54c-0.01,16.57,0,33.14,0,49.71
		c0,48.44,0,96.88,0,145.33c0,3.63,0.01,3.64,3.57,3.64c13.02,0,26.04,0,39.06,0c3.69,0,3.69,0,3.69-3.74c0-34.66,0-69.32,0-103.98
		c0-0.86,0-1.72,0-2.58c0.62,0.44,0.86,0.88,1.07,1.33c16.53,35.41,33.08,70.82,49.54,106.27c0.97,2.08,2.08,2.78,4.38,2.77
		c16.06-0.11,32.13-0.06,48.19-0.06C247.96,927.59,248.96,927.59,250.38,927.59z M345.31,931.78c7.38-0.73,14.82-1.06,22.12-2.26
		c26.85-4.4,45.52-19.31,55.84-44.51c6.95-16.96,9.17-34.84,9.55-52.96c0.2-9.69-0.41-19.41-0.88-29.11
		c-0.53-10.98-2.38-21.77-5.6-32.3c-7.38-24.12-23-39.64-47.76-45.45c-16.7-3.92-33.57-4.41-50.52-1.96
		c-28.7,4.15-48.33,19.77-58.81,46.83c-6.75,17.41-8.69,35.65-8.97,54.11c-0.13,8.6,0.46,17.21,0.88,25.82
		c0.51,10.56,2.18,20.95,5.1,31.12c6.54,22.81,20.31,38.73,43.51,45.69C321.35,930.27,333.26,931.25,345.31,931.78z M231.33,405.2
		c0.46,8.25,0.87,16.51,1.41,24.76c0.63,9.7,2.35,19.23,5.13,28.55c6.77,22.71,20.87,38.37,44.04,44.8
		c19.75,5.48,39.88,5.94,59.91,1.99c25.9-5.11,43.48-20.51,53.15-45.04c6.11-15.5,8.48-31.73,8.98-48.23
		c0.29-9.61-0.11-19.26-0.43-28.88c-0.38-11.49-2.04-22.83-5.21-33.9c-3.8-13.31-9.96-25.28-20.81-34.35
		c-12.93-10.82-28.41-14.72-44.71-16.16c-10.54-0.93-21.08-0.91-31.6,0.47c-13.26,1.74-25.63,5.86-36.46,13.94
		c-13.4,10-21.43,23.66-26.36,39.32C232.99,369.61,231.37,387.28,231.33,405.2z M97.46,614.79c0,32.54,0,65.09-0.01,97.63
		c0,1.92-0.23,3.61,2.74,3.62c20.12,0.06,40.23,0.43,60.34,0.39c10.64-0.02,21.2-1.33,31.54-4.01
		c26.97-7.01,45.31-23.38,54.33-49.95c4.77-14.04,6.64-28.54,6.93-43.27c0.14-7.34-0.18-14.69-0.45-22.04
		c-0.43-11.76-2.21-23.32-5.61-34.6c-6.68-22.12-20.59-37.22-42.94-44.07c-10.96-3.36-22.23-4.87-33.64-5.18
		c-9.12-0.25-18.25-0.15-27.37-0.08c-14.11,0.1-28.23,0.27-42.34,0.48c-3.52,0.05-3.52,0.18-3.52,3.69
		C97.46,549.87,97.46,582.33,97.46,614.79z M595.92,927.55c1.68,0.13,3.09,0.32,4.51,0.33c18.59,0.19,37.18,0.52,55.77,0.47
		c11.91-0.03,23.73-1.24,35.29-4.38c24.3-6.6,41.76-21.06,51.31-44.59c5.69-14,8.11-28.7,8.6-43.69c0.31-9.52-0.07-19.08-0.42-28.61
		c-0.43-11.85-2.43-23.46-6.12-34.74c-7.23-22.05-21.91-36.31-44.36-42.61c-12.29-3.45-24.86-4.75-37.52-4.82
		c-21.21-0.11-42.42,0.26-63.63,0.43c-3.44,0.03-3.45,0.04-3.45,3.5c0,65.16,0,130.32,0,195.49
		C595.92,925.34,595.92,926.33,595.92,927.55z M555.38,834.95c0.71-0.4,1.07-0.62,1.44-0.81c10.32-5.19,17.62-13.22,22.17-23.76
		c5.01-11.61,6.05-23.76,4.67-36.21c-2.1-18.86-11.35-32.7-28.73-40.78c-12.96-6.03-26.77-8.04-40.88-8.05
		c-22.73-0.02-45.46,0.34-68.19,0.38c-2.71,0.01-3.15,0.91-3.15,3.33c0.06,65.08,0.05,130.17,0.05,195.25c0,0.99,0,1.97,0,3.12
		c16.86,0,33.38,0,50.14,0c0.07-1.44,0.18-2.77,0.18-4.11c0.01-24,0.01-48.01,0.01-72.01c0-0.76,0.04-1.52,0-2.28
		c-0.09-1.6,0.58-2.31,2.23-2.25c2.36,0.08,4.74,0.16,7.1-0.03c2.4-0.19,3.53,0.63,4.32,3.02c8.33,25.13,16.82,50.2,25.18,75.31
		c0.64,1.93,1.51,2.58,3.56,2.57c17.5-0.09,34.99-0.05,52.49-0.05c0.82,0,1.63,0,2.96,0C578.97,896.45,567.2,865.78,555.38,834.95z
		 M263.67,513.75c0,1.4,0,2.33,0,3.25c0,44.21-0.09,88.42,0.09,132.63c0.03,7.21,0.7,14.53,2.09,21.59
		c3.83,19.38,14.53,33.53,33.23,40.97c9.09,3.61,18.59,5.22,28.33,5.94c13.14,0.97,26.16,0.46,38.97-2.69
		c21.14-5.2,36.58-17.23,44.49-37.95c4.05-10.6,5.77-21.68,5.8-32.96c0.1-42.6,0.03-85.21,0.09-127.81c0-2.22-0.47-3.05-2.9-3.03
		c-15.13,0.12-30.26,0.06-45.39,0.06c-0.89,0-1.78,0.09-2.85,0.14c0,1.46,0,2.63,0,3.8c0,42.27,0.03,84.53-0.04,126.8
		c-0.01,4.88-0.41,9.78-1,14.63c-1.17,9.63-6.25,15.87-14.42,17.89c-6.23,1.54-12.52,1.48-18.82,0.23
		c-7.75-1.54-12.78-6.11-14.55-13.73c-1.1-4.73-1.91-9.65-1.93-14.48c-0.15-44.04-0.12-88.08-0.04-132.12
		c0-2.58-0.68-3.25-3.24-3.23c-14.96,0.13-29.92,0.06-44.89,0.06C265.8,513.75,264.9,513.75,263.67,513.75z M549.19,359.91
		c-0.1-0.2-0.31-0.55-0.44-0.94c-6.31-18.15-12.65-36.29-18.89-54.47c-0.72-2.1-1.75-2.81-3.99-2.8
		c-17.33,0.1-34.66,0.05-51.99,0.06c-0.88,0-1.76,0.09-3.02,0.16c0.65,1.63,1.11,2.87,1.64,4.08
		c13.12,30.09,26.24,60.18,39.42,90.24c0.79,1.8,0.74,3.22-0.05,5c-14.81,33.22-29.56,66.47-44.31,99.72
		c-0.38,0.86-0.65,1.78-1.01,2.79c0.71,0.12,1.03,0.22,1.36,0.22c17.24,0.01,34.49,0.04,51.73-0.06c0.83-0.01,2.06-1.05,2.43-1.91
		c1.98-4.66,3.77-9.39,5.58-14.12c4.89-12.76,9.81-25.5,14.59-38.3c1.44-3.87,2.46-7.9,3.82-12.36c2.02,6.26,3.51,12.09,5.75,17.62
		c6.33,15.64,12.99,31.15,19.44,46.74c0.76,1.84,1.75,2.47,3.76,2.46c17.67-0.08,35.33-0.05,53-0.05c0.82,0,1.63,0,2.89,0
		c-0.61-1.5-1.01-2.58-1.48-3.63c-15.02-33.22-30.01-66.46-45.12-99.64c-1.17-2.58-1.07-4.61,0.09-7.11
		c13.67-29.57,27.24-59.19,40.82-88.8c0.39-0.86,0.66-1.77,1.12-3.06c-1.5,0-2.5,0-3.5,0c-16.23,0-32.46,0.06-48.69-0.06
		c-2.54-0.02-3.68,0.79-4.55,3.15C562.87,323.21,556.02,341.52,549.19,359.91z M82.58,301.9c1.2,5.51,2.32,10.6,3.43,15.68
		c7.33,33.66,14.65,67.32,21.99,100.97c6.03,27.65,12.11,55.28,18.08,82.95c0.44,2.04,1.28,2.53,3.2,2.52
		c21.89-0.05,43.79-0.06,65.68,0.01c1.88,0.01,2.7-0.59,3.1-2.39c4.89-22.04,9.83-44.06,14.76-66.09
		c8.73-38.96,17.47-77.91,26.2-116.86c1.23-5.49,2.41-10.98,3.65-16.67c-0.96-0.12-1.61-0.26-2.26-0.26
		c-15.64-0.01-31.28,0.02-46.91-0.05c-1.71-0.01-2.43,0.67-2.72,2.21c-1.37,7.28-2.77,14.56-4.17,21.84
		c-4.14,21.5-8.4,42.98-12.41,64.5c-3.86,20.68-7.46,41.42-11.18,62.13c0.22,0.04,0.45,0.08,0.67,0.13
		c-0.19-1.42-0.39-2.84-0.58-4.26c-0.96-7.18-1.66-14.41-2.94-21.53c-2.01-11.1-4.43-22.13-6.66-33.19
		c-5.98-29.64-11.96-59.27-17.88-88.92c-0.45-2.23-1.36-2.95-3.68-2.94c-15.38,0.11-30.77,0.06-46.15,0.06
		C84.88,301.76,83.97,301.84,82.58,301.9z M465.45,403.03c0-32.7-0.03-65.41,0.06-98.11c0.01-2.62-0.76-3.24-3.28-3.22
		c-15.13,0.11-30.25,0.1-45.38,0c-2.4-0.02-2.99,0.81-2.99,3.07c0.05,65.41,0.05,130.81-0.01,196.22c0,2.54,0.9,3.06,3.23,3.05
		c15.04-0.09,30.08-0.04,45.13-0.05c3.23,0,3.24-0.01,3.24-3.36C465.45,468.1,465.45,435.57,465.45,403.03z"/>
	<path class="st0" d="M330.98,292.04c-1.28,0.09-2.28,0.22-3.28,0.22c-15.22,0.01-30.43-0.06-45.65,0.07
		c-2.79,0.03-3.73-0.96-4.23-3.58c-1.69-8.94-3.67-17.82-5.44-26.74c-0.29-1.47-0.91-1.99-2.34-1.98c-14.29,0.03-28.57,0.03-42.86,0
		c-1.48,0-2,0.61-2.29,2.04c-1.77,8.92-3.74,17.8-5.44,26.74c-0.47,2.47-1.28,3.52-4.02,3.52c-43.11-0.08-86.22-0.08-129.33-0.01
		c-2.6,0-3.29-0.86-3.29-3.35c0.05-65.26,0.04-130.51,0.05-195.77c0-3.32,0.08-3.38,3.42-3.38c14.88-0.01,29.75-0.01,44.63,0
		c3.57,0,3.59,0.01,3.59,3.74c0,50.72,0,101.44,0,152.15c0,0.85,0.06,1.7-0.01,2.53c-0.15,1.79,0.67,2.3,2.39,2.29
		c12.93-0.06,25.87-0.08,38.8,0.03c2.07,0.02,2.34-1.12,2.65-2.56c3.59-16.54,7.18-33.09,10.79-49.63
		c6.51-29.87,13.03-59.74,19.55-89.61c1.22-5.59,2.56-11.17,3.66-16.78c0.34-1.76,1.2-2.17,2.75-2.17c23.5,0.02,47,0.03,70.5-0.02
		c1.93,0,2.43,1.02,2.76,2.55c4.56,21.25,9.14,42.49,13.7,63.73c5.68,26.43,11.36,52.86,17.04,79.29
		c3.91,18.2,7.84,36.39,11.75,54.59C330.97,290.51,330.93,291.1,330.98,292.04z M266.11,220.06c-5.79-28.1-11.54-55.98-17.29-83.85
		c-0.22-0.01-0.43-0.02-0.65-0.03c-5.65,27.88-11.3,55.77-17,83.88C242.95,220.06,254.31,220.06,266.11,220.06z"/>
	<path class="st0" d="M250.38,927.59c-1.42,0-2.42,0-3.42,0c-16.06,0-32.13-0.05-48.19,0.06c-2.29,0.02-3.41-0.69-4.38-2.77
		c-16.46-35.45-33.01-70.85-49.54-106.27c-0.21-0.45-0.45-0.89-1.07-1.33c0,0.86,0,1.72,0,2.58c0,34.66,0,69.32,0,103.98
		c0,3.74-0.01,3.74-3.69,3.74c-13.02,0-26.04,0-39.06,0c-3.56,0-3.57,0-3.57-3.64c0-48.44,0-96.88,0-145.33c0-16.57,0-33.14,0-49.71
		c0-3.5,0.05-3.54,3.53-3.54c16.74,0,33.48,0.04,50.22-0.05c2.27-0.01,3.43,0.69,4.41,2.78c15.79,33.43,31.67,66.82,47.53,100.22
		c0.25,0.53,0.51,1.05,1.18,1.59c0-0.83,0-1.66,0-2.48c0-32.8,0-65.6,0-98.4c0-3.64,0-3.65,3.57-3.65c13.02,0,26.04,0,39.06,0
		c3.39,0,3.4,0.01,3.4,3.28c0,65.27,0,130.53,0,195.8C250.38,925.36,250.38,926.27,250.38,927.59z"/>
	<path class="st0" d="M345.31,931.78c-12.05-0.54-23.96-1.51-35.54-4.99c-23.19-6.96-36.97-22.88-43.51-45.69
		c-2.92-10.17-4.59-20.56-5.1-31.12c-0.42-8.6-1.01-17.22-0.88-25.82c0.28-18.46,2.22-36.7,8.97-54.11
		c10.49-27.06,30.11-42.68,58.81-46.83c16.95-2.45,33.82-1.96,50.52,1.96c24.77,5.82,40.38,21.33,47.76,45.45
		c3.22,10.53,5.07,21.31,5.6,32.3c0.47,9.7,1.08,19.41,0.88,29.11c-0.38,18.12-2.6,36-9.55,52.96
		c-10.33,25.2-28.99,40.12-55.84,44.51C360.13,930.72,352.69,931.05,345.31,931.78z M379.47,823.79c-0.3-5.59-0.49-13.61-1.24-21.58
		c-0.73-7.8-2.11-15.52-5.4-22.76c-3.53-7.77-9.1-13.22-17.61-14.95c-3.51-0.71-7.2-0.84-10.8-0.78
		c-10.88,0.17-18.81,5.2-23.53,15.05c-1.02,2.12-1.85,4.35-2.56,6.6c-3.82,12.14-4.24,24.74-4.45,37.28
		c-0.15,9.1,0.3,18.23,1.01,27.31c0.62,7.98,2.07,15.87,5.4,23.28c3.49,7.77,8.96,13.37,17.48,15.09c4,0.8,8.22,0.92,12.32,0.76
		c7.93-0.32,14.74-3.46,19.07-10.25c2.59-4.06,4.67-8.63,6.05-13.25C379.04,852.76,379.09,839.46,379.47,823.79z"/>
	<path class="st0" d="M231.33,405.2c0.04-17.92,1.65-35.59,7.06-52.74c4.93-15.66,12.95-29.32,26.36-39.32
		c10.83-8.08,23.2-12.19,36.46-13.94c10.51-1.38,21.06-1.4,31.6-0.47c16.31,1.44,31.78,5.35,44.71,16.16
		c10.85,9.07,17,21.04,20.81,34.35c3.16,11.06,4.82,22.41,5.21,33.9c0.32,9.62,0.72,19.27,0.43,28.88
		c-0.5,16.5-2.87,32.73-8.98,48.23c-9.67,24.53-27.25,39.92-53.15,45.04c-20.03,3.96-40.16,3.49-59.91-1.99
		c-23.17-6.43-37.28-22.09-44.04-44.8c-2.78-9.32-4.5-18.84-5.13-28.55C232.21,421.71,231.8,413.45,231.33,405.2z M284.76,402.98
		c0.71,9.75,1.19,19.52,2.21,29.23c0.76,7.23,2.63,14.25,6.33,20.64c3.57,6.15,8.69,10.35,15.72,11.75
		c3.36,0.67,6.85,0.96,10.28,0.93c11.05-0.07,19.2-5.01,24.09-15.04c4.36-8.96,5.89-18.64,6.44-28.41
		c0.59-10.44,0.7-20.93,0.52-31.39c-0.16-9.18-1.08-18.33-3.47-27.27c-4.27-16.01-12.87-23.18-28.31-23.51
		c-8.92-0.19-16.92,1.96-22.76,9.29c-3.48,4.37-5.51,9.46-6.89,14.81C285.62,376.8,285.18,389.85,284.76,402.98z"/>
	<path class="st0" d="M97.46,614.79c0-32.46,0-64.92,0-97.38c0-3.51,0.01-3.64,3.52-3.69c14.11-0.21,28.23-0.38,42.34-0.48
		c9.12-0.07,18.25-0.17,27.37,0.08c11.41,0.32,22.68,1.82,33.64,5.18c22.35,6.86,36.26,21.96,42.94,44.07
		c3.41,11.28,5.18,22.84,5.61,34.6c0.27,7.34,0.6,14.7,0.45,22.04c-0.29,14.73-2.16,29.23-6.93,43.27
		c-9.02,26.57-27.36,42.94-54.33,49.95c-10.34,2.69-20.89,4-31.54,4.01c-20.11,0.03-40.23-0.33-60.34-0.39
		c-2.97-0.01-2.74-1.7-2.74-3.62C97.46,679.88,97.46,647.33,97.46,614.79z M148.42,614.43c0,19.35,0.07,38.71-0.08,58.06
		c-0.02,2.82,1.08,3.55,3.45,3.56c4.23,0.02,8.46,0.21,12.67,0.05c14.22-0.54,24.25-7.26,29.8-20.48
		c4.28-10.2,5.57-21.01,5.92-31.89c0.28-8.77-0.06-17.56-0.44-26.33c-0.33-7.86-1.72-15.58-4.54-22.97
		c-3.79-9.92-10.46-16.81-20.93-19.63c-7.79-2.1-15.74-1.6-23.66-1.52c-1.93,0.02-2.23,1.15-2.23,2.85
		C148.44,575.55,148.42,594.99,148.42,614.43z"/>
	<path class="st0" d="M595.92,927.55c0-1.21,0-2.21,0-3.21c0-65.16,0-130.32,0-195.49c0-3.46,0-3.48,3.45-3.5
		c21.21-0.17,42.42-0.55,63.63-0.43c12.66,0.07,25.22,1.38,37.52,4.82c22.45,6.29,37.13,20.55,44.36,42.61
		c3.7,11.28,5.7,22.89,6.12,34.74c0.34,9.53,0.73,19.08,0.42,28.61c-0.49,14.98-2.92,29.69-8.6,43.69
		c-9.56,23.53-27.02,37.98-51.31,44.59c-11.56,3.14-23.39,4.35-35.29,4.38c-18.59,0.05-37.18-0.28-55.77-0.47
		C599.02,927.86,597.6,927.67,595.92,927.55z M698.4,825.38c0-4.06,0.17-8.12-0.04-12.16c-0.43-8.35-1.43-16.62-4.04-24.62
		c-4.02-12.33-11.93-20.6-25.04-22.6c-6.04-0.92-12.28-0.65-18.43-0.79c-4.02-0.09-4.02,0.02-4.02,3.93c0,38.2,0,76.4,0,114.6
		c0,0.76-0.17,1.59,0.08,2.26c0.24,0.63,0.91,1.51,1.45,1.56c7.41,0.68,14.83,1.16,22.16-0.61c12.3-2.97,19.37-11.32,23.29-22.83
		C698.09,851.55,698.58,838.49,698.4,825.38z"/>
	<path class="st0" d="M555.38,834.95c11.83,30.82,23.59,61.5,35.54,92.64c-1.33,0-2.15,0-2.96,0c-17.5,0-34.99-0.04-52.49,0.05
		c-2.05,0.01-2.92-0.64-3.56-2.57c-8.36-25.11-16.85-50.19-25.18-75.31c-0.79-2.38-1.91-3.21-4.32-3.02
		c-2.35,0.19-4.73,0.11-7.1,0.03c-1.65-0.06-2.32,0.65-2.23,2.25c0.04,0.76,0,1.52,0,2.28c0,24,0,48.01-0.01,72.01
		c0,1.33-0.11,2.66-0.18,4.11c-16.76,0-33.28,0-50.14,0c0-1.15,0-2.14,0-3.12c0-65.08,0.01-130.17-0.05-195.25
		c0-2.43,0.44-3.33,3.15-3.33c22.73-0.05,45.46-0.4,68.19-0.38c14.11,0.01,27.92,2.02,40.88,8.05
		c17.37,8.08,26.62,21.92,28.73,40.78c1.39,12.45,0.35,24.6-4.67,36.21c-4.55,10.54-11.85,18.58-22.17,23.76
		C556.44,834.33,556.09,834.55,555.38,834.95z M504.47,763.98c-0.03,0.25-0.05,0.5-0.08,0.76c-2.87,0-5.74,0-8.61,0
		c-1.82,0-2.74,0.72-2.73,2.74c0.06,12.75,0.04,25.5,0.02,38.25c0,1.54,0.44,2.35,2.17,2.28c6.06-0.23,12.15-0.09,18.19-0.6
		c9.14-0.77,15.89-6.13,17.46-14.01c0.77-3.83,0.72-7.88,0.62-11.81c-0.22-7.97-4.16-13.31-11.88-15.32
		C514.71,764.98,509.53,764.71,504.47,763.98z"/>
	<path class="st0" d="M263.67,513.75c1.22,0,2.13,0,3.03,0c14.96,0,29.92,0.06,44.89-0.06c2.57-0.02,3.25,0.65,3.24,3.23
		c-0.08,44.04-0.11,88.08,0.04,132.12c0.02,4.84,0.83,9.75,1.93,14.48c1.77,7.62,6.8,12.2,14.55,13.73
		c6.3,1.25,12.59,1.3,18.82-0.23c8.17-2.02,13.25-8.26,14.42-17.89c0.59-4.85,0.99-9.75,1-14.63c0.08-42.27,0.04-84.53,0.04-126.8
		c0-1.17,0-2.34,0-3.8c1.07-0.06,1.96-0.14,2.85-0.14c15.13-0.01,30.26,0.05,45.39-0.06c2.44-0.02,2.91,0.81,2.9,3.03
		c-0.06,42.6,0.01,85.21-0.09,127.81c-0.03,11.28-1.75,22.36-5.8,32.96c-7.92,20.73-23.35,32.76-44.49,37.95
		c-12.81,3.15-25.83,3.66-38.97,2.69c-9.74-0.72-19.25-2.32-28.33-5.94c-18.7-7.44-29.4-21.59-33.23-40.97
		c-1.4-7.07-2.06-14.38-2.09-21.59c-0.19-44.21-0.09-88.42-0.09-132.63C263.67,516.08,263.67,515.15,263.67,513.75z"/>
	<path class="st0" d="M549.19,359.91c6.83-18.39,13.68-36.7,20.39-55.07c0.86-2.36,2-3.17,4.55-3.15
		c16.23,0.12,32.46,0.06,48.69,0.06c1,0,2,0,3.5,0c-0.47,1.28-0.73,2.2-1.12,3.06c-13.58,29.61-27.15,59.23-40.82,88.8
		c-1.16,2.5-1.26,4.53-0.09,7.11c15.11,33.18,30.1,66.41,45.12,99.64c0.47,1.05,0.87,2.13,1.48,3.63c-1.26,0-2.08,0-2.89,0
		c-17.67,0-35.33-0.04-53,0.05c-2.01,0.01-3-0.61-3.76-2.46c-6.45-15.59-13.11-31.1-19.44-46.74c-2.24-5.53-3.73-11.35-5.75-17.62
		c-1.36,4.46-2.37,8.49-3.82,12.36c-4.78,12.8-9.7,25.54-14.59,38.3c-1.81,4.73-3.6,9.46-5.58,14.12c-0.36,0.85-1.59,1.9-2.43,1.91
		c-17.24,0.11-34.49,0.08-51.73,0.06c-0.33,0-0.65-0.1-1.36-0.22c0.36-1.01,0.63-1.93,1.01-2.79c14.75-33.25,29.5-66.5,44.31-99.72
		c0.79-1.77,0.83-3.2,0.05-5c-13.18-30.06-26.3-60.15-39.42-90.24c-0.53-1.21-0.99-2.45-1.64-4.08c1.27-0.07,2.14-0.16,3.02-0.16
		c17.33-0.01,34.66,0.04,51.99-0.06c2.24-0.01,3.28,0.7,3.99,2.8c6.24,18.18,12.57,36.32,18.89,54.47
		C548.88,359.36,549.09,359.71,549.19,359.91z"/>
	<path class="st0" d="M82.58,301.9c1.39-0.06,2.3-0.14,3.21-0.14c15.38-0.01,30.77,0.05,46.15-0.06c2.32-0.02,3.24,0.7,3.68,2.94
		c5.92,29.65,11.9,59.28,17.88,88.92c2.23,11.06,4.65,22.09,6.66,33.19c1.29,7.12,1.98,14.35,2.94,21.53
		c0.19,1.42,0.38,2.84,0.58,4.26c-0.22-0.04-0.45-0.08-0.67-0.13c3.72-20.71,7.33-41.44,11.18-62.13c4.01-21.52,8.27-43,12.41-64.5
		c1.4-7.28,2.8-14.55,4.17-21.84c0.29-1.55,1.01-2.22,2.72-2.21c15.64,0.06,31.28,0.03,46.91,0.05c0.65,0,1.3,0.15,2.26,0.26
		c-1.25,5.69-2.43,11.18-3.65,16.67c-8.73,38.96-17.47,77.91-26.2,116.86c-4.94,22.03-9.87,44.05-14.76,66.09
		c-0.4,1.8-1.22,2.39-3.1,2.39c-21.89-0.07-43.79-0.06-65.68-0.01c-1.92,0-2.76-0.49-3.2-2.52c-5.96-27.66-12.05-55.3-18.08-82.95
		C100.66,384.9,93.34,351.24,86,317.59C84.9,312.5,83.78,307.42,82.58,301.9z"/>
	<path class="st0" d="M465.45,403.03c0,32.53,0,65.07,0,97.6c0,3.35-0.01,3.36-3.24,3.36c-15.04,0-30.08-0.04-45.13,0.05
		c-2.33,0.01-3.24-0.5-3.23-3.05c0.06-65.41,0.06-130.81,0.01-196.22c0-2.26,0.59-3.08,2.99-3.07c15.13,0.1,30.25,0.11,45.38,0
		c2.52-0.02,3.29,0.6,3.28,3.22C465.42,337.63,465.45,370.33,465.45,403.03z"/>
	<path class="st1" d="M266.11,220.06c-11.8,0-23.17,0-34.94,0c5.7-28.11,11.35-56,17-83.88c0.22,0.01,0.43,0.02,0.65,0.03
		C254.57,164.09,260.32,191.96,266.11,220.06z"/>
	<path class="st1" d="M379.47,823.79c-0.38,15.67-0.44,28.97-4.26,41.79c-1.38,4.62-3.46,9.19-6.05,13.25
		c-4.33,6.79-11.14,9.94-19.07,10.25c-4.1,0.16-8.32,0.04-12.32-0.76c-8.52-1.71-14-7.32-17.48-15.09
		c-3.33-7.41-4.78-15.3-5.4-23.28c-0.71-9.08-1.16-18.21-1.01-27.31c0.21-12.55,0.63-25.14,4.45-37.28c0.71-2.25,1.54-4.47,2.56-6.6
		c4.72-9.86,12.65-14.88,23.53-15.05c3.6-0.06,7.29,0.07,10.8,0.78c8.51,1.73,14.08,7.18,17.61,14.95
		c3.29,7.24,4.67,14.96,5.4,22.76C378.99,810.18,379.17,818.2,379.47,823.79z"/>
	<path class="st1" d="M284.76,402.98c0.43-13.13,0.87-26.18,4.16-38.96c1.38-5.35,3.4-10.44,6.89-14.81
		c5.84-7.33,13.85-9.48,22.76-9.29c15.44,0.33,24.04,7.5,28.31,23.51c2.38,8.94,3.3,18.09,3.47,27.27
		c0.19,10.46,0.07,20.95-0.52,31.39c-0.55,9.77-2.08,19.45-6.44,28.41c-4.89,10.03-13.04,14.97-24.09,15.04
		c-3.43,0.02-6.92-0.26-10.28-0.93c-7.03-1.4-12.15-5.6-15.72-11.75c-3.7-6.39-5.58-13.41-6.33-20.64
		C285.95,422.5,285.47,412.73,284.76,402.98z"/>
	<path class="st1" d="M148.42,614.43c0-19.44,0.02-38.88-0.03-58.32c0-1.71,0.3-2.83,2.23-2.85c7.93-0.08,15.88-0.58,23.66,1.52
		c10.47,2.83,17.14,9.71,20.93,19.63c2.82,7.39,4.21,15.11,4.54,22.97c0.37,8.77,0.72,17.57,0.44,26.33
		c-0.35,10.88-1.64,21.69-5.92,31.89c-5.55,13.22-15.59,19.94-29.8,20.48c-4.22,0.16-8.45-0.03-12.67-0.05
		c-2.37-0.01-3.47-0.74-3.45-3.56C148.49,653.14,148.42,633.78,148.42,614.43z"/>
	<path class="st1" d="M698.4,825.38c0.18,13.1-0.31,26.16-4.59,38.74c-3.92,11.51-10.99,19.86-23.29,22.83
		c-7.33,1.77-14.76,1.29-22.16,0.61c-0.54-0.05-1.21-0.93-1.45-1.56c-0.26-0.67-0.08-1.5-0.08-2.26c0-38.2,0-76.4,0-114.6
		c0-3.91,0.01-4.02,4.02-3.93c6.15,0.14,12.39-0.13,18.43,0.79c13.11,2,21.02,10.27,25.04,22.6c2.61,8,3.61,16.27,4.04,24.62
		C698.58,817.26,698.4,821.33,698.4,825.38z"/>
	<path class="st1" d="M504.47,763.98c5.06,0.72,10.24,0.99,15.16,2.28c7.72,2.02,11.67,7.35,11.88,15.32
		c0.11,3.94,0.15,7.98-0.62,11.81c-1.58,7.88-8.32,13.24-17.46,14.01c-6.04,0.51-12.13,0.37-18.19,0.6
		c-1.73,0.06-2.18-0.74-2.17-2.28c0.02-12.75,0.04-25.5-0.02-38.25c-0.01-2.01,0.91-2.74,2.73-2.74c2.87,0,5.74,0,8.61,0
		C504.41,764.49,504.44,764.23,504.47,763.98z"/>
</g>
</svg>
