<?xml version="1.0" encoding="utf-8"?>
<!-- Generator: Adobe Illustrator 26.0.2, SVG Export Plug-In . SVG Version: 6.00 Build 0)  -->
<svg version="1.1" id="Calque_1" xmlns="http://www.w3.org/2000/svg" xmlns:xlink="http://www.w3.org/1999/xlink" x="0px" y="0px"
	 viewBox="0 0 1000 1000" style="enable-background:new 0 0 1000 1000;" xml:space="preserve">
<style type="text/css">
	.st0{fill:#16385F;}
	.st1{fill:#FEFEFE;}
	.st2{fill:#4A8FE1;}
	.st3{fill:#6680A0;}
</style>
<g>
	<path class="st0" d="M999.94,200.14c0,79.09,0,158.18,0,237.27c-1.66,5.19-2.72,6.07-8.35,6.08c-43.88,0.07-87.75,0.06-131.63,0
		c-6.56-0.01-9.97-3.41-10.05-10.12c-0.18-14.99,0.11-29.99-0.12-44.98c-0.17-11.51-4.05-21.82-11.83-30.36
		c-5.42-5.95-12.41-9.63-20.13-11.86c-6.33-1.83-12.76-2.67-19.38-2.66c-52.65,0.07-105.3,0.04-157.95,0.04
		c-10.4,0-11.06,0.67-11.06,11.22c0,46.31,0,92.63,0,138.94c0,0.44,0,0.89,0,1.33c0.02,6.04,0.18,6.22,6.13,6.22
		c40.32,0.01,80.64,0.12,120.96-0.07c10.48-0.05,13.05,2.67,12.98,13.01c-0.24,35.21-0.09,70.41-0.09,105.62
		c0,1.89,0.06,3.78-0.1,5.66c-0.35,4.11-3.21,6.93-7.35,7.22c-2.66,0.19-5.33,0.09-8,0.09c-16,0-31.99-0.02-47.99,0.02
		c-2.44,0.01-4.87-0.31-7.31-0.22c-9.09,0.43-18.18,0.14-27.27,0.18c-11.31,0.06-22.63-0.03-33.94,0.03
		c-6.22,0.04-7.74,1.81-8.05,7.9c-1.44,28.9-1.04,57.82-1.12,86.74c-0.01,3.45,0.11,6.87,1.01,10.21
		c0.82,8.31,1.88,16.58,5.98,24.04c5.27,9.61,14,14.57,24.17,17.38c8.59,2.37,17.4,3.41,26.31,3.42
		c22.87,0.04,45.75,0.01,68.63,0.01c1.67,0,3.33-0.01,5,0.03c6.49,0.16,10.03,3.49,10.58,9.96c0.14,1.66,0.1,3.33,0.1,4.99
		c0,40.75,0.01,81.5-0.01,122.24c0,2.21,0.17,4.44-0.36,6.63c-1.09,4.48-2.09,5.35-6.76,5.87c-165.56,0-331.12,0-496.68,0
		c-4.86-0.63-6.21-1.97-6.27-6.82c-0.16-12.65-0.06-25.31-0.06-37.96c-0.01-30.3,0-60.6,0-90.91c0-1.89-0.04-3.78,0.07-5.66
		c0.27-4.51,3.48-7.84,8.03-8.27c1.99-0.19,3.99-0.12,5.99-0.12c27.31-0.01,54.62,0.05,81.93-0.03c11.4-0.04,20.61-7.18,23.44-18.09
		c0.95-3.65,1.2-7.42,1.2-11.21c-0.03-49.17-0.03-98.34,0-147.51c0-2.19-0.41-4.45,0.65-6.54c1.25-1.71,2.95-1.29,4.53-0.79
		c13.45,4.3,27.22,7.17,41.16,9.22c11.07,1.62,22.19,2.78,33.34,3.81c12.47,1.16,24.97,2.09,37.39,3.73
		c3.66,0.48,4.26,0.04,4.26-3.78c0.01-79.61-0.01-159.21,0.06-238.82c0-3.43-1.37-5.92-3.55-8.26
		c-10.8-11.64-21.85-23.04-33.38-33.94c-21.94-20.74-45.16-39.93-70.03-57.13c-21.24-14.69-43.64-27.27-66.93-38.32
		c-8.21-3.9-16.59-7.48-25.17-10.52c-4.63-1.64-6.04-0.38-5.26,4.4c0.11,0.66,0.27,1.3,0.31,1.97c0.19,3.82-1.75,5.61-5.54,4.91
		c-4.26-0.79-8.33-2.3-12.48-3.52c-5.32-1.56-10.56-3.38-15.8-5.2c-1.71-0.6-3.34-1.3-3.78-3.35c-0.92-7.08-0.61-14.2-0.21-21.27
		c0.23-4.15,4.34-7.69,8.53-8.11c2.1-0.21,4.22-0.13,6.33-0.13c237.78,0,475.56,0,713.35,0c1.22,0,2.44,0,3.66,0.02
		C997.51,194.17,998.61,195.02,999.94,200.14z"/>
	<path class="st1" d="M382.03,598.78c0,52.65-0.04,105.29,0.03,157.94c0.02,16.19-11.84,27.77-27.62,27.56
		c-28.1-0.37-56.21-0.01-84.31-0.19c-5.18-0.03-8.89,3.09-8.86,8.89c0.2,43.87,0.13,87.74,0.08,131.61c0,3.56,1,6.24,4.62,7.41
		c0.5,0.14,0.53,0.34,0.08,0.6c-87.65,0-175.31-0.01-262.96,0.06c-2.5,0-3.06-0.56-3.06-3.06c0.07-243.6,0.06-487.2,0.06-730.79
		c2.34-0.12,2.51,1.89,3.03,3.32c4.49,12.44,9.54,24.62,15.32,36.53c8.55,17.62,18.41,34.45,29.6,50.52
		c14.73,21.14,31.85,40.19,50.59,57.79c12.48,11.73,26.03,22.15,40.3,31.64c1.76,1.17,3.58,2.26,4.93,3.93
		c2.22,2.74,1.37,5.34-2.03,6.32c-1.92,0.56-3.75,0.1-5.54-0.53c-4.19-1.47-8.29-3.2-12.51-4.58c-1.16-0.38-2.31-0.8-3.51-1.03
		c-2.03-0.39-4.37-1.56-5.97,0.31c-1.83,2.14-0.31,4.51,0.78,6.5c5.3,9.65,12.56,17.78,20.64,25.11
		c14.07,12.78,29.13,24.35,44.97,34.86c20.32,13.49,42.25,24.04,64.15,34.62c8.8,4.25,17.74,8.19,26.54,12.43
		c1.2,0.58,2.41,1.15,3.49,1.94c1.78,1.31,3.35,2.85,2.44,5.28c-0.84,2.23-2.9,2.51-5,2.45c-2.67-0.07-5.28-0.74-7.94-0.79
		c-4.56-0.08-7.51,4.05-6.03,8.35c0.41,1.19,1.24,2.08,2.03,3.02c10.89,12.98,23.31,24.35,36.55,34.86
		c24.51,19.46,51.85,33.75,81.18,44.4C379.6,596.63,381.39,596.89,382.03,598.78z"/>
	<path class="st1" d="M698.49,631.62c1.21-0.09,2.41-0.25,3.62-0.25c19.22-0.02,38.43-0.16,57.65,0.09
		c4.94,0.06,8.35-2.99,8.33-8.22c-0.21-36.98-0.26-73.97,0.01-110.95c0.05-7.53-3.34-9.66-9.57-9.64
		c-42.32,0.14-84.64,0.05-126.96,0.14c-2.91,0.01-3.85-0.57-3.84-3.71c0.11-49.53,0.08-99.06,0.08-148.6c0-6.2,2.38-8.57,8.59-8.57
		c54.87,0,109.74-0.08,164.61,0.05c13.21,0.03,25.47,3.61,35.63,12.52c7.92,6.95,12.13,16.02,14.08,26.24
		c0.56,2.94,0.79,5.89,0.78,8.89c-0.03,14.33-0.02,28.65-0.01,42.98c0,6.98,2.53,9.48,9.58,9.48c42.99,0,85.97-0.04,128.96,0.07
		c4.27,0.01,7.71-0.85,9.92-4.73c0,164.06-0.01,328.13,0.06,492.19c0,2.5-0.56,3.06-3.06,3.06c-77.88-0.08-155.75-0.06-233.63-0.06
		c-0.45-0.26-0.42-0.46,0.08-0.6c4.61-1.33,5.03-5.11,5.04-8.96c0.05-14.88,0.02-29.77,0.02-44.65c0-27.77,0-55.54-0.01-83.31
		c0-1.43-0.07-2.82-0.38-4.26c-0.99-4.6-3.19-6.62-7.91-6.64c-9.89-0.03-19.77,0.01-29.66-0.01c-16.66-0.05-33.32,0.12-49.97-0.28
		c-10.35-0.24-20.59-1.95-30.12-6.32c-12.2-5.59-18.82-15.49-21.16-28.44c-0.68-3.78-0.97-7.63-1.44-11.45
		c-0.29-12.32-0.08-24.64-0.12-36.96c-0.04-13.1-0.01-26.2-0.01-39.3c0-4.44,1.12-5.21,5.08-3.13c14.04,7.4,27.94,15.05,41.49,23.35
		c41.66,25.51,80.15,55.36,118.16,85.89c14.8,11.88,29.7,23.64,44.42,35.63c4.96,4.04,10.37,3.67,14.52-0.86
		c3.89-4.25,3.71-9.81-0.94-14.2c-18.49-17.46-36.68-35.25-54.1-53.74c-29.7-31.51-60.39-62.03-90.93-92.71
		c-2.11-2.12-3.88-4.56-5.95-6.74C698.58,634.02,697.79,632.99,698.49,631.62z"/>
	<path class="st2" d="M382.03,598.78c-18.41-6.4-36.16-14.18-53.11-23.9c-14.28-8.19-27.71-17.56-40.29-28.07
		c-11.09-9.26-21.38-19.43-30.66-30.55c-2.04-2.44-1.93-6.54,0.16-9.74c2.2-3.37,5.71-2.82,8.71-2.2c2.15,0.45,4.36,0.05,6.5,0.82
		c0.8,0.29,2.74-0.08,3.28-1.61c0.53-1.52-0.36-2.7-1.53-3.36c-3.05-1.72-6.15-3.37-9.34-4.82c-15.66-7.11-31.11-14.62-46.48-22.32
		c-15.57-7.8-30.72-16.29-45.01-26.26c-10.86-7.58-21.3-15.7-31.49-24.18c-9.78-8.15-18.68-17.03-25.97-27.48
		c-1.86-2.67-3.66-5.45-4.54-8.66c-0.98-3.57,0.7-5.85,4.35-5.65c6.34,0.35,11.89,3.47,17.78,5.4c2.62,0.86,5.03,2.6,8.1,1.27
		c2.12-0.92,2.36-1.93,0.99-3.63c-1.7-2.11-4.08-3.34-6.25-4.79c-10.47-7.01-20.41-14.68-30.08-22.76
		c-11.08-9.26-21.3-19.42-31.01-30c-16.76-18.24-31.55-38.04-44.13-59.47c-4.55-7.74-8.93-15.58-12.94-23.58
		c-6.75-13.47-12.66-27.34-17.56-41.61c-0.35-1.03-0.47-2.12-1.43-2.81c0-1.78,0-3.55,0-5.33c1.76-5.59,5.41-7.29,10.96-5.1
		c0.93,0.37,1.8,0.91,2.77,1.14c3.93,0.92,6.86-2.51,5.77-6.91c-1.57-6.35-3.43-12.63-4.96-18.99
		C9.16,140.86,4.55,117.95,1.91,94.67c-0.71-6.29-0.84-12.6-1.1-18.9c-0.24-5.73,0.57-6.58,5.95-8.26c1.33,0,2.67,0,4,0
		c4.3,0.55,6.95,3.77,9.83,6.41c20.91,19.15,42.94,36.92,65.76,53.72c29.1,21.43,59.38,41.04,91.25,58.14
		c25.87,13.88,52.39,26.34,80.13,36.06c1.38,0.48,2.72,1.01,3.43,2.43c10.54,3.76,21.19,7.18,31.99,10.13
		c2.82,0.77,3.78-0.12,3.55-2.78c-0.12-1.41-0.3-2.85-0.68-4.21c-1.16-4.14,2.24-6.48,6.25-4.96c6.79,2.56,13.49,5.31,20.11,8.26
		c23.97,10.69,46.94,23.22,68.68,37.96c14.74,9.99,29.01,20.6,42.67,32.05c9.55,8.01,18.89,16.24,28.07,24.67
		c9.98,9.16,19.44,18.83,28.85,28.55c3.81,3.94,7.89,7.71,11.22,12.16c1.09,1.46,1.52,2.78,1.52,4.51
		c-0.02,81.08-0.03,162.15,0.01,243.23c0,2.12,0.02,3.32-2.85,2.94c-7.4-0.97-14.86-1.56-22.3-2.25c-6.99-0.65-14.01-1.01-20.97-1.9
		c-8.71-1.12-17.45-1.94-26.16-3.09c-12.1-1.6-24.03-3.91-35.84-6.88C390.81,601.54,386.44,600.08,382.03,598.78z"/>
	<path class="st1" d="M261.15,224.28c-9.85-2.87-19.29-6.87-28.77-10.73c-17.04-6.92-33.56-15.01-49.84-23.53
		c-15.38-8.05-30.38-16.82-45.09-26.06c-11.84-7.43-23.51-15.1-34.97-23.09c-13.26-9.25-26.24-18.89-38.94-28.91
		c-10.76-8.49-21.4-17.12-31.61-26.26c-5.9-5.28-11.82-10.53-17.77-15.76c-1.04-0.91-2.26-1.62-3.4-2.43
		c328.73,0,657.45,0,986.18-0.06c2.5,0,3.07,0.56,3.06,3.06c-0.09,43.21-0.06,86.42-0.06,129.63c-1.81-3.39-4.51-4.73-8.46-4.73
		c-240.1,0.07-480.19,0.08-720.29-0.05c-5.09,0-10.26,4.6-9.91,9.97C261.68,211.62,261.23,217.96,261.15,224.28z"/>
	<path class="st1" d="M6.76,67.52c-4.92,2.72-5.9,6.64-4.9,12.12c0.9,4.9,1.02,10.02,1.52,15.04c0.97,9.68,2.44,19.3,4.17,28.85
		c2.92,16.06,6.35,32.03,10.53,47.82c0.95,3.58,1.85,7.17,2.97,10.69c0.94,2.95,0.4,5.75-1.69,7.6c-2.13,1.88-4.81,2.39-7.85,0.65
		c-5.04-2.89-8.01-1.84-11.43,3.21c0-40.77,0.05-81.55-0.09-122.32c-0.01-3.16,0.67-4.26,3.77-3.67
		C4.73,67.67,5.76,67.52,6.76,67.52z"/>
	<path class="st3" d="M763.38,932c-0.06,0.2-0.08,0.4-0.08,0.6c-165.75,0-331.5,0-497.26,0c0.01-0.2-0.02-0.4-0.08-0.6
		c1.22-0.02,2.44-0.06,3.66-0.06c163.36,0,326.72,0,490.09,0C760.94,931.94,762.16,931.98,763.38,932z"/>
	<path class="st2" d="M698.49,631.62c2.58,2.99,4.99,6.16,7.76,8.95c16.6,16.71,33.31,33.3,49.92,50
		c7.81,7.86,15.68,15.67,23.14,23.86c20.33,22.31,42.13,43.17,63.41,64.54c2.95,2.96,6.21,5.64,9.17,8.62
		c4.45,4.47,4.61,10.99,0.78,15.41c-4.97,5.74-11.69,5.37-16.68,1.36c-11.01-8.86-22.04-17.67-33.05-26.52
		c-8.28-6.66-16.5-13.41-24.83-20.01c-7.97-6.33-16.05-12.52-24.08-18.77c-11.9-9.28-24.05-18.22-36.32-27
		c-17.07-12.21-34.64-23.68-52.64-34.44c-9.2-5.5-18.76-10.37-28.16-15.54c-1.63-0.89-3.22-1.86-4.87-2.7
		c-4.03-2.05-4.04-2.03-4.04,2.36c0,19.77,0.01,39.54-0.01,59.31c-0.01,5.55-0.12,11.09-0.18,16.63c-0.66-1.15-0.33-2.39-0.33-3.59
		c-0.02-21.43,0.02-42.85-0.03-64.28c-0.02-10.64,0.89-21.26,0.6-31.91c-0.11-3.96,2.99-6.53,7.53-6.54
		c14.32-0.03,28.65-0.06,42.97,0.01C685.18,631.41,691.84,631.02,698.49,631.62z"/>
</g>
</svg>
