<?xml version="1.0" encoding="utf-8"?>
<!-- Generator: Adobe Illustrator 26.0.2, SVG Export Plug-In . SVG Version: 6.00 Build 0)  -->
<svg version="1.1" id="Calque_1" xmlns="http://www.w3.org/2000/svg" xmlns:xlink="http://www.w3.org/1999/xlink" x="0px" y="0px"
	 viewBox="0 0 18 18" style="enable-background:new 0 0 18 18;" xml:space="preserve">
<style type="text/css">
	.st0{fill-rule:evenodd;clip-rule:evenodd;fill:#FFC600;}
	.st1{fill-rule:evenodd;clip-rule:evenodd;fill:#FFFFFF;}
</style>
<g>
	<path class="st0" d="M0,0h18v18H0V0z"/>
	<path class="st1" d="M14.3,6c-0.5,0.3-0.7,0.7-0.7,1.4v5.2c0,0.3,0,0.5,0.2,0.6l0.2,0.1l0.5-0.3l0.2,0.3l-1.6,1l-0.6-0.4
		c-0.2-0.2-0.3-0.4-0.3-0.8V8.4c0-0.9,0.3-1.3,0.6-1.6l0.2-0.2l-1.5-0.9l-0.7,0.4v6.7c0,0.6-0.1,0.6-0.6,0.9c0,0-0.4,0.2-0.9,0.5
		H9.2V6.8c0-0.4,0-0.4-0.2-0.6L8.4,5.7L7.7,6.1V10c0,0.7-0.1,1.2-0.6,1.5l-1.3,0.8l-0.1-0.2c0.4-0.3,0.5-0.8,0.5-1.3V6.8
		c0-0.6-0.1-0.8-0.7-0.7C5.3,6.2,5,6.2,4.8,6.2C4,6.4,3.6,5.7,4.2,4.9c0,0,0.1-0.2,0.5-0.7L5,4.5L4.8,4.8C4.5,5.2,4.7,5.4,5.1,5.2
		C5.3,5.1,5.7,5,6,4.9c1.2-0.5,1.7,0.3,1.7,0.8l1.5-1l1.3,1l1.6-1.1l1.2,0.7c0.4,0.3,0.6,0.1,0.9,0l0.2-0.1l0.2,0.3L14.3,6z
		 M6.4,14.2c-0.1-0.4-0.5-0.8-1.2-0.8c-0.6,0-1.5,0.2-2.3,0.8l-0.1-0.2c0.5-0.6,1.8-1.6,3.1-1.6c0.7,0,1.2,0.2,1.5,0.6L8,12.7
		l0.2,0.4L6.4,14.2z"/>
</g>
</svg>
