<?xml version="1.0" encoding="utf-8"?>
<!-- Generator: Adobe Illustrator 26.0.2, SVG Export Plug-In . SVG Version: 6.00 Build 0)  -->
<svg version="1.1" id="Calque_1" xmlns="http://www.w3.org/2000/svg" xmlns:xlink="http://www.w3.org/1999/xlink" x="0px" y="0px"
	 viewBox="0 0 1000 1000" style="enable-background:new 0 0 1000 1000;" xml:space="preserve">
<style type="text/css">
	.st0{fill:#1E9FE5;}
	.st1{fill:#EF3333;}
	.st2{fill:#F9FAFC;}
	.st3{fill:#159DE5;}
	.st4{fill:#EE1C1C;}
	.st5{fill:#FEFEFE;}
	.st6{fill:#009AE4;}
	.st7{fill:#0D9CE4;}
	.st8{fill:#159FE5;}
	.st9{fill:#0F9DE4;}
	.st10{fill:#0099E3;}
	.st11{fill:#069BE4;}
	.st12{fill:#039AE4;}
</style>
<g>
	<path class="st0" d="M0.66,888.47c0-296.01,0-592.03,0-888.04c327.05,0,654.1,0.13,981.15-0.43c15.2-0.03,18.22,2.98,18.19,18.19
		c-0.58,290.09-0.43,580.19-0.43,870.28c-7.92,7.26-17.81,6.28-27.34,6.28c-314.75,0.1-629.49,0.1-944.24,0
		C18.47,894.74,8.58,895.72,0.66,888.47z"/>
	<path class="st1" d="M999.57,932.87c0,19.2-0.41,38.42,0.21,57.6c0.24,7.34-0.86,10.81-8.96,9.1c-2.83-0.6-5.89-0.1-8.84-0.1
		c-321.24,0-642.48-0.14-963.73,0.44c-15.44,0.03-19.46-3.28-17.96-18.34c1.61-16.09,0.36-32.46,0.36-48.71
		c7.92-7.26,17.81-6.28,27.34-6.28c314.75-0.1,629.49-0.1,944.24,0C981.76,926.59,991.65,925.61,999.57,932.87z"/>
	<path class="st2" d="M999.57,897.35c0,10.36,0,20.72,0,31.08c-6.92,3.93-14.48,2.07-21.73,2.07c-318.49,0.1-636.97,0.1-955.46,0
		c-7.24,0-14.8,1.86-21.73-2.07c0-10.36,0-20.72,0-31.08c7.75-6.15,16.95-4.35,25.66-4.36c315.86-0.09,631.73-0.09,947.59,0
		C982.62,893,991.82,891.2,999.57,897.35z"/>
	<ellipse class="st3" cx="500.11" cy="892.91" rx="706.34" ry="6.28"/>
	<path class="st4" d="M0.66,928.43c183.1-0.16,366.2-0.44,549.29-0.46c149.87-0.01,299.75,0.29,449.62,0.46c0,1.48,0,2.96,0,4.44
		c-332.97,0-665.94,0-998.91,0C0.66,931.39,0.66,929.91,0.66,928.43z"/>
	<path class="st5" d="M519.28,129.73c37.69,10.21,74.7,21.54,104.72,48.67c34.6,31.26,49.18,72.47,59.76,115.92
		c4.89,8.29,3,16.93,1.31,25.56c0.03,12.01,0.06,24.03,0.08,36.04c1.59,8.66,3.37,17.33-1.27,25.69
		c-9.17,37.83-21.39,74.11-42.44,107.61c-31.81,50.63-78.72,81.39-130.9,106.26c-5.9,2.81-11.8,5.65-17.7,8.47
		c-0.72,1.86-1.95,2.4-3.75,1.42c-6.23,6.17-3.02,13.95-3.05,20.89c-0.29,61.12-0.95,122.26,0.29,183.35
		c0.38,19.01-5.79,24.2-23.71,22.76c-21.95-1.76-44.08-1.28-66.13-1.77c-5.08-5.76-2.77-12.74-2.78-19.14
		c-0.13-220.99-0.13-441.98,0-662.97c0-6.4-2.3-13.38,2.78-19.14c33.86-3.4,67.78-0.56,101.66-1.01
		C505.32,127.04,512.54,124.85,519.28,129.73z"/>
	<path class="st6" d="M396.51,129.35c0,233.75,0,467.5,0,701.25c-8.35-5.99-5.01-14.87-5.02-22.52
		c-0.18-218.74-0.18-437.48,0-656.21C391.49,144.22,388.16,135.33,396.51,129.35z"/>
	<path class="st7" d="M489.11,605.36c0.96-1.24,2.21-1.72,3.75-1.42c0.19,73.13,0.38,146.25,0.58,219.38
		c0.01,4.51-0.5,8.81-4.4,11.86l-0.02-0.03C489.04,758.56,489.07,681.96,489.11,605.36z"/>
	<path class="st8" d="M484.28,123.54c-26.13,0-52.27,0-78.4,0c-0.01-0.6-0.03-1.19-0.04-1.79c26.14,0,52.28,0,78.41,0
		C484.26,122.35,484.27,122.94,484.28,123.54z"/>
	<path class="st9" d="M489.03,835.19c-27.71,9.75-55.85,1.74-83.82-0.02c27.93,0,55.87,0,83.8,0
		C489.01,835.16,489.03,835.19,489.03,835.19z"/>
	<path class="st10" d="M685.08,319.88c-0.44-8.52-0.88-17.04-1.31-25.56C692.9,302.39,689.07,311.13,685.08,319.88z"/>
	<path class="st10" d="M683.89,381.61c0.42-8.56,0.85-17.12,1.27-25.69c6.21,8.25,3.64,17.32,2.41,26.25
		c-0.04,0.26-1.25,0.59-1.84,0.49C685.08,382.55,684.5,381.98,683.89,381.61z"/>
	<path class="st11" d="M519.28,129.73c-7.04-0.47-14.08-0.94-21.12-1.4C505.46,124.95,512.89,119.64,519.28,129.73z"/>
	<path class="st0" d="M582.49,315.19c4.85,15.2,4.89,30.4,0.13,45.63c-1.26-0.36-1.07-2.33-2.62-2.36
		c0.48,7.83-1.29,15.78,1.24,23.5c-8.19,52.94-35.75,93.51-79.14,123.97c-10.15-1.31-12.97-7.96-12.99-17.16
		c-0.13-87.53-0.23-175.05,0.1-262.58c0.02-4.49,0.97-8.77,4.2-12.21c31.07-10.6,59.42,16.28,77.9,48.68
		c6.1,10.7,8.98,23.07,10.14,35.57c-2.85,6.36-1.13,13.08-1.33,19.62c-0.05,1.55-1.63,2.7-0.73,4.27
		C581.16,320.14,579.67,316.7,582.49,315.19z"/>
	<path class="st7" d="M493.41,213.98c0.01,88.78,0.04,177.55,0.02,266.33c0,9.56-1.47,19.52,8.67,25.61
		c-8.3,6.5-15.94,11.14-15.94-5.68c-0.01-93.45,0.02-186.9-0.1-280.35C486.06,214.22,487.26,211.35,493.41,213.98z"/>
	<path class="st12" d="M581.24,381.95c-6.45-9.76-2.48-20.2-3.09-31.09c5.32,2.64,3.13,6.94,4.47,9.95
		C582.16,367.86,581.7,374.9,581.24,381.95z"/>
	<path class="st10" d="M582.49,315.19c-0.45,2.77-0.9,5.54-1.34,8.31c-2.66-8.49-6.15-16.97,0.31-25.27
		C581.8,303.88,582.15,309.53,582.49,315.19z"/>
</g>
</svg>
